<?xml version="1.0" encoding="UTF-8"?>
<!DOCTYPE svg PUBLIC "-//W3C//DTD SVG 1.1//EN" "http://www.w3.org/Graphics/SVG/1.1/DTD/svg11.dtd">
<svg xmlns="http://www.w3.org/2000/svg" version="1.1" width="960px" height="960px" style="shape-rendering:geometricPrecision; text-rendering:geometricPrecision; image-rendering:optimizeQuality; fill-rule:evenodd; clip-rule:evenodd" xmlns:xlink="http://www.w3.org/1999/xlink">
<g><path style="opacity:1" fill="#020202" d="M 467.5,238.5 C 529.124,237.719 575.957,263.386 608,315.5C 637.316,375.274 631.983,431.608 592,484.5C 545.677,535.04 489.844,549.54 424.5,528C 357.623,497.443 326.123,445.276 330,371.5C 339.648,309.529 373.815,267.696 432.5,246C 444.068,242.353 455.735,239.853 467.5,238.5 Z M 474.5,315.5 C 515.221,317.053 540.054,337.719 549,377.5C 552.61,408.399 541.777,432.566 516.5,450C 490.911,463.943 465.245,463.943 439.5,450C 410.601,428.64 400.767,400.474 410,365.5C 421.5,335.823 443,319.156 474.5,315.5 Z"/></g>
<g><path style="opacity:1" fill="#020202" d="M 642.5,487.5 C 645.434,488.289 647.268,490.289 648,493.5C 667.393,536.619 687.059,579.619 707,622.5C 722.783,658.738 715.283,688.905 684.5,713C 660.748,726.15 635.414,730.817 608.5,727C 584.629,723.71 562.296,716.043 541.5,704C 527.601,694.769 514.268,684.769 501.5,674C 474.077,654.521 443.577,642.687 410,638.5C 419.108,614.599 429.108,590.932 440,567.5C 440.893,566.919 441.893,566.585 443,566.5C 478.877,573.362 511.71,587.195 541.5,608C 556.109,620.975 572.109,631.975 589.5,641C 603.343,647.025 617.676,649.025 632.5,647C 616.973,614.085 601.64,581.085 586.5,548C 595.424,542.085 604.09,535.752 612.5,529C 625.459,517.223 635.459,503.389 642.5,487.5 Z"/></g>
<g><path style="opacity:1" fill="#020202" d="M 296.5,554.5 C 324.5,554.5 352.5,554.5 380.5,554.5C 357.551,609.835 333.718,664.835 309,719.5C 280.574,720.495 252.074,720.829 223.5,720.5C 247.062,664.808 271.396,609.474 296.5,554.5 Z"/></g>
</svg>
