<?xml version="1.0" encoding="UTF-8"?>
<svg version="1.1" xmlns="http://www.w3.org/2000/svg" width="128" height="128">
<path d="M0 0 C4.09524968 2.43972321 5.51670856 4.55660292 7 9 C8.71979324 21.83845654 3.06260726 31.74334845 -4 42 C-3.34 42.66 -2.68 43.32 -2 44 C1.3454582 43.81752046 4.01065234 43.57445993 6.9375 41.875 C8.26191293 39.89698696 8.26191293 39.89698696 8 36.8125 C8 31.14812916 9.7327475 26.99139679 12.75 22.25 C17.68843383 17.31156617 21.2146038 15.75541544 28.125 15.6875 C31.88226012 15.78021161 35.32454956 16.25997642 39 17 C40.546875 16.9071875 40.546875 16.9071875 42.125 16.8125 C45 17 45 17 46.64770508 18.68652344 C48.22863889 21.39115041 48.42114545 23.08740357 48.51171875 26.203125 C48.54716797 27.1828125 48.58261719 28.1625 48.61914062 29.171875 C48.64169922 30.18765625 48.66425781 31.2034375 48.6875 32.25 C48.72166016 33.28125 48.75582031 34.3125 48.79101562 35.375 C48.87338093 37.91655812 48.94256834 40.45777626 49 43 C50.83700789 43.77242269 50.83700789 43.77242269 53 44 C54.8342357 42.90806924 54.8342357 42.90806924 56 41 C56.4528383 38.94715037 56.4528383 38.94715037 56.40625 36.69140625 C56.43912109 35.44713867 56.43912109 35.44713867 56.47265625 34.17773438 C56.48167969 33.31470703 56.49070312 32.45167969 56.5 31.5625 C56.59201502 22.80135557 56.59201502 22.80135557 58.30859375 19.4296875 C60 18 60 18 63.5625 17.5625 C64.696875 17.706875 65.83125 17.85125 67 18 C69.19164944 21.28747416 69.28679386 22.48494825 69.4140625 26.32421875 C69.45273438 27.35224609 69.49140625 28.38027344 69.53125 29.43945312 C69.5621875 30.51130859 69.593125 31.58316406 69.625 32.6875 C69.66367188 33.77095703 69.70234375 34.85441406 69.7421875 35.97070312 C69.83650509 38.64696467 69.92210005 41.32321843 70 44 C70.77085938 43.90460938 71.54171875 43.80921875 72.3359375 43.7109375 C73.33882813 43.60007813 74.34171875 43.48921875 75.375 43.375 C76.37273437 43.25898437 77.37046875 43.14296875 78.3984375 43.0234375 C79.68621094 43.01183594 79.68621094 43.01183594 81 43 C83 45 83 45 83.375 48.4375 C83 52 83 52 81.1875 53.875 C76.98910002 56.03417713 73.68437078 56.31758446 69 56 C66.99218823 55.01577854 64.99107248 54.01765927 63 53 C60.55070465 53.22266321 58.92334619 54.03521932 56.6875 55.0625 C53.2421361 56.26437113 50.63314289 56.31869674 47 56 C46.05125 55.443125 45.1025 54.88625 44.125 54.3125 C39.99309227 52.57709875 38.32064605 53.6552949 34.296875 55.21484375 C27.93393093 57.38993177 22.83471284 55.80515041 17 53 C14.5119723 52.07573268 13.48479871 51.80381686 10.9921875 52.8125 C10.29351562 53.204375 9.59484375 53.59625 8.875 54 C3.69096141 56.45559723 -0.48775604 56.45965671 -6 55 C-8.56632883 53.85890022 -10.65713973 52.5788841 -13 51 C-13.886875 51.825 -14.77375 52.65 -15.6875 53.5 C-17.87894978 55.3193168 -18.821014 55.96670028 -21.6875 56.5 C-24 56 -24 56 -25.8125 54.875 C-27.69781629 51.89818481 -27.73403339 50.469976 -27 47 C-24.98851444 45.13034996 -22.9209505 43.55121239 -20.65234375 42.00390625 C-18.64331142 40.04006135 -18.64331142 40.04006135 -19.23828125 36.96484375 C-19.36468994 36.35632568 -19.49109863 35.74780762 -19.62133789 35.12084961 C-20.39325683 30.7974068 -20.22645223 26.37988528 -20.25 22 C-20.270625 21.0409375 -20.29125 20.081875 -20.3125 19.09375 C-20.34454412 13.2617204 -19.84271628 9.13042605 -17 4 C-11.56790129 -1.16049378 -7.06888476 -1.60261184 0 0 Z M-7 9 C-10.57048257 12.57048257 -9.86080854 18.1409525 -10 23 C-9.67032024 26.52348549 -9.67032024 26.52348549 -9 29 C-5.0225484 24.64374349 -3.16823779 18.74788396 -2.8125 12.9375 C-2.874375 12.298125 -2.93625 11.65875 -3 11 C-4.32 10.34 -5.64 9.68 -7 9 Z M22 30 C19.66015558 32.87648225 19.66015558 32.87648225 20.125 36.4375 C21.08135521 40.33123193 21.69754692 41.76861278 25 44 C27.95691709 44.75015195 27.95691709 44.75015195 31 44 C34.02033737 42.06307631 34.02033737 42.06307631 36 39 C36.63664952 34.96788636 36.69818231 32.98262696 34.3125 29.625 C29.52004458 26.25732862 26.64806728 26.48254368 22 30 Z " fill="#000000" transform="translate(36,33)"/>
<path d="M0 0 C2.4375 1.5625 2.4375 1.5625 4 4 C3.9375 7.625 3.9375 7.625 3 11 C-0.46923881 13.31282587 -1.92205575 13.42478586 -6 13 C-7.875 11.9375 -7.875 11.9375 -9 10 C-9.63316583 4.09045226 -9.63316583 4.09045226 -7.875 1.0625 C-5.06487736 -0.52990283 -3.17235276 -0.45319325 0 0 Z " fill="#000000" transform="translate(102,35)"/>
</svg>
