<?xml version="1.0" encoding="UTF-8"?>
<!DOCTYPE svg PUBLIC "-//W3C//DTD SVG 1.1//EN" "http://www.w3.org/Graphics/SVG/1.1/DTD/svg11.dtd">
<svg xmlns="http://www.w3.org/2000/svg" version="1.1" width="750px" height="750px" style="shape-rendering:geometricPrecision; text-rendering:geometricPrecision; image-rendering:optimizeQuality; fill-rule:evenodd; clip-rule:evenodd" xmlns:xlink="http://www.w3.org/1999/xlink">
<g><path style="opacity:1" fill="#060606" d="M 348.5,163.5 C 348.336,166.187 348.503,168.854 349,171.5C 349.717,170.956 350.217,170.289 350.5,169.5C 355.637,163.686 362.137,161.02 370,161.5C 374.735,161.207 379.235,162.04 383.5,164C 386.704,166.869 389.537,170.035 392,173.5C 399.27,163.296 409.104,159.796 421.5,163C 430.974,165.807 437.14,171.974 440,181.5C 440.581,202.173 440.415,222.84 439.5,243.5C 431.913,243.814 424.413,243.481 417,242.5C 416.614,224.491 416.614,206.491 417,188.5C 415.337,183.986 412.004,181.652 407,181.5C 400.551,181.378 396.551,184.378 395,190.5C 394.722,207.517 394.055,224.517 393,241.5C 385.576,242.211 378.076,242.211 370.5,241.5C 370.65,224.783 371.317,208.116 372.5,191.5C 370.805,180.814 364.805,177.647 354.5,182C 352.333,182.833 350.833,184.333 350,186.5C 349.061,204.193 348.228,221.86 347.5,239.5C 339.942,240.813 332.442,240.813 325,239.5C 325.516,213.846 326.182,188.179 327,162.5C 333.752,161.355 340.586,161.189 347.5,162C 348.056,162.383 348.389,162.883 348.5,163.5 Z"/></g>
<g><path style="opacity:1" fill="#f9faf9" d="M 348.5,163.5 C 349.167,165.5 349.833,167.5 350.5,169.5C 350.217,170.289 349.717,170.956 349,171.5C 348.503,168.854 348.336,166.187 348.5,163.5 Z"/></g>
<g><path style="opacity:1" fill="#060606" d="M 265.5,184.5 C 270.729,189.236 275.062,194.736 278.5,201C 277.037,219.35 275.37,237.683 273.5,256C 284.583,248.501 295.416,240.334 306,231.5C 310.228,236.057 314.061,240.89 317.5,246C 299.467,261.099 280.967,275.599 262,289.5C 258.367,286.196 255.034,282.529 252,278.5C 252.387,258.097 253.387,237.764 255,217.5C 246.076,224.38 237.242,231.38 228.5,238.5C 223.95,234.117 219.95,229.284 216.5,224C 232.961,211.044 249.295,197.877 265.5,184.5 Z"/></g>
<g><path style="opacity:1" fill="#060606" d="M 534.5,257.5 C 533.883,257.389 533.383,257.056 533,256.5C 530.097,258.546 528.264,261.213 527.5,264.5C 520.5,272.167 513.167,279.5 505.5,286.5C 501.833,286.833 499.833,288.833 499.5,292.5C 498.069,294.189 497.236,296.189 497,298.5C 495.951,299.517 494.784,299.684 493.5,299C 488.667,294.167 483.833,289.333 479,284.5C 479.027,282.583 479.861,280.916 481.5,279.5C 470.686,276.523 461.519,270.856 454,262.5C 446.779,247.824 450.279,236.324 464.5,228C 472.995,223.294 481.329,223.627 489.5,229C 497.027,234.694 504.694,240.194 512.5,245.5C 517.117,244.076 518.95,241.076 518,236.5C 513.298,225.882 505.798,222.715 495.5,227C 490.454,222.289 485.787,217.289 481.5,212C 488.292,204.737 496.626,202.07 506.5,204C 518.065,209.222 527.565,217.056 535,227.5C 542.353,237.801 542.187,247.801 534.5,257.5 Z M 478.5,245.5 C 482.131,245.16 485.464,245.994 488.5,248C 493.167,251.333 497.833,254.667 502.5,258C 492.897,269.156 483.064,269.323 473,258.5C 471.102,252.387 472.935,248.053 478.5,245.5 Z"/></g>
<g><path style="opacity:1" fill="#0d0d0d" d="M 161.5,249.5 C 170.464,249.137 175.798,253.304 177.5,262C 174.957,273.6 168.291,277.267 157.5,273C 148.719,263.523 150.052,255.689 161.5,249.5 Z"/></g>
<g><path style="opacity:1" fill="#4f4f4f" d="M 534.5,257.5 C 532.5,260.167 530.167,262.5 527.5,264.5C 528.264,261.213 530.097,258.546 533,256.5C 533.383,257.056 533.883,257.389 534.5,257.5 Z"/></g>
<g><path style="opacity:1" fill="#040404" d="M 523.5,435.5 C 521.577,434.882 519.577,435.215 517.5,436.5C 516.614,437.325 516.281,438.325 516.5,439.5C 426.772,480.599 332.772,506.099 234.5,516C 201.027,518.979 168.027,516.312 135.5,508C 89.2173,490.375 80.7173,461.542 110,421.5C 120.905,408.593 133.072,397.093 146.5,387C 147.793,386.51 149.127,386.343 150.5,386.5C 150.506,395.917 151.006,405.25 152,414.5C 144.623,421.209 137.957,428.542 132,436.5C 126.181,444.43 124.514,453.097 127,462.5C 130.458,468.163 135.292,472.329 141.5,475C 162.487,482.463 184.154,485.963 206.5,485.5C 269.65,483.129 331.316,472.296 391.5,453C 446.513,436.49 499.18,414.49 549.5,387C 570.637,375.533 589.804,361.367 607,344.5C 611.389,339.111 615.389,333.444 619,327.5C 625.193,311.746 620.36,300.913 604.5,295C 596.272,292.057 587.938,289.557 579.5,287.5C 574.577,278.328 570.244,268.994 566.5,259.5C 591.071,260.637 614.071,267.137 635.5,279C 658.615,296.653 662.782,318.153 648,343.5C 632.862,366.306 613.528,384.64 590,398.5C 581.278,474.511 544.111,531.677 478.5,570C 414.939,603.493 350.273,605.826 284.5,577C 262.418,566.299 242.418,552.633 224.5,536C 223.663,534.989 223.33,533.822 223.5,532.5C 238.171,531.777 252.838,531.277 267.5,531C 315.714,564.774 368.38,574.107 425.5,559C 483.275,540.555 523.775,503.388 547,447.5C 550.606,438.409 552.939,429.075 554,419.5C 544.332,425.751 534.165,431.084 523.5,435.5 Z"/></g>
<g><path style="opacity:1" fill="#070707" d="M 186.5,263.5 C 209.853,275.927 232.686,289.26 255,303.5C 252.126,310.392 248.292,316.892 243.5,323C 220.522,310.417 197.689,297.25 175,283.5C 178.514,276.825 182.347,270.158 186.5,263.5 Z"/></g>
<g><path style="opacity:1" fill="#030303" d="M 362.5,267.5 C 415.941,264.956 450.107,289.289 465,340.5C 468.315,360.506 468.315,380.506 465,400.5C 463.778,406.058 461.945,411.391 459.5,416.5C 432.281,428.407 404.281,438.241 375.5,446C 361.209,449.823 346.876,453.489 332.5,457C 328.878,458.106 325.211,458.439 321.5,458C 297.314,440.486 283.814,416.652 281,386.5C 277.313,355.918 283.98,327.918 301,302.5C 317.016,282.91 337.516,271.243 362.5,267.5 Z M 370.5,308.5 C 392.807,308.073 407.641,318.406 415,339.5C 421.227,361.605 420.893,383.605 414,405.5C 403.039,427.226 385.539,435.393 361.5,430C 348.824,425.99 339.99,417.824 335,405.5C 332.551,399.37 330.884,393.037 330,386.5C 327.016,365.377 330.349,345.377 340,326.5C 347.604,316.044 357.771,310.044 370.5,308.5 Z"/></g>
<g><path style="opacity:1" fill="#060606" d="M 567.5,282.5 C 568.496,282.414 569.329,282.748 570,283.5C 572.56,289.621 575.394,295.621 578.5,301.5C 576.044,303.567 573.378,305.401 570.5,307C 589.784,313.438 596.618,326.604 591,346.5C 580.85,363.419 565.85,372.752 546,374.5C 519.994,371.859 509.327,357.859 514,332.5C 506.592,336.704 498.925,340.371 491,343.5C 490.228,343.355 489.561,343.022 489,342.5C 486.5,336.333 484,330.167 481.5,324C 481.645,323.228 481.978,322.561 482.5,322C 511.195,309.315 539.528,296.149 567.5,282.5 Z M 552.5,315.5 C 566.542,315.706 572.375,322.706 570,336.5C 564.358,345.414 556.191,350.414 545.5,351.5C 533.113,350.411 528.28,343.744 531,331.5C 532.123,328.751 533.623,326.251 535.5,324C 540.99,320.588 546.657,317.755 552.5,315.5 Z"/></g>
<g><path style="opacity:1" fill="#595959" d="M 505.5,286.5 C 503.833,288.833 501.833,290.833 499.5,292.5C 499.833,288.833 501.833,286.833 505.5,286.5 Z"/></g>
<g><path style="opacity:1" fill="#080808" d="M 157.5,317.5 C 165.061,318.189 172.061,320.356 178.5,324C 173.985,334.964 176.318,343.964 185.5,351C 200.099,354.587 214.766,357.92 229.5,361C 230.059,361.725 230.392,362.558 230.5,363.5C 229,370.167 227.5,376.833 226,383.5C 225.439,384.022 224.772,384.355 224,384.5C 199.202,378.641 174.369,372.974 149.5,367.5C 149.167,367 148.833,366.5 148.5,366C 150.027,359.529 151.361,353.029 152.5,346.5C 156.506,347.336 160.506,347.836 164.5,348C 154.362,339.616 152.029,329.449 157.5,317.5 Z"/></g>
<g><path style="opacity:1" fill="#3a3a3a" d="M 523.5,435.5 C 521.365,437.071 519.032,438.404 516.5,439.5C 516.281,438.325 516.614,437.325 517.5,436.5C 519.577,435.215 521.577,434.882 523.5,435.5 Z"/></g>
</svg>
