<?xml version="1.0" standalone="no"?>
<!DOCTYPE svg PUBLIC "-//W3C//DTD SVG 20010904//EN"
 "http://www.w3.org/TR/2001/REC-SVG-20010904/DTD/svg10.dtd">
<svg version="1.0" xmlns="http://www.w3.org/2000/svg"
 width="700.000000pt" height="700.000000pt" viewBox="0 0 700.000000 700.000000"
 preserveAspectRatio="xMidYMid meet">
<metadata>
Created by potrace 1.16, written by Peter Selinger 2001-2019
</metadata>
<g transform="translate(0.000000,700.000000) scale(0.100000,-0.100000)"
fill="#000000" stroke="none">
<path d="M3674 6044 c-113 -54 -206 -183 -240 -332 l-16 -71 -61 -5 c-34 -3
-106 -8 -160 -11 -167 -10 -277 -50 -354 -126 -63 -62 -86 -117 -81 -191 4
-56 8 -64 45 -99 59 -55 100 -63 288 -55 88 4 183 9 211 12 50 6 52 6 48 -17
-2 -13 -63 -433 -134 -934 -72 -500 -138 -957 -146 -1015 l-17 -105 -171 0
c-183 0 -232 -7 -374 -56 -358 -121 -612 -470 -664 -912 -36 -304 82 -609 295
-761 234 -167 490 -154 692 35 36 34 67 60 69 58 2 -2 10 -17 19 -34 27 -53
83 -110 137 -139 106 -58 265 -43 329 29 40 46 39 71 -4 135 -82 122 -80 198
19 830 78 501 161 1047 246 1630 27 184 63 425 80 535 38 244 98 652 107 718
3 26 9 49 12 52 8 5 320 22 641 35 254 10 314 21 389 67 82 51 127 147 107
227 -10 40 -62 92 -115 115 -104 45 -363 48 -859 12 -90 -6 -93 -6 -88 14 45
190 28 307 -54 363 -46 31 -127 30 -196 -4z m-721 -3661 c-23 -164 -47 -327
-52 -362 -11 -73 -37 -116 -117 -191 -132 -125 -286 -135 -381 -26 -115 130
-105 431 19 622 106 161 281 251 494 253 l80 1 -43 -297z"/>
<path d="M4525 5115 c-261 -70 -463 -257 -581 -535 -215 -512 -74 -1095 311
-1280 105 -50 169 -64 285 -63 181 1 329 70 480 222 148 150 229 306 288 556
23 97 26 131 26 285 0 195 -13 270 -65 396 -96 231 -271 385 -483 425 -69 13
-202 10 -261 -6z m235 -387 c48 -33 98 -130 117 -230 19 -100 13 -303 -11
-415 -21 -99 -69 -219 -115 -290 -109 -169 -261 -203 -355 -80 -59 78 -93 252
-82 417 26 353 180 618 362 620 37 0 60 -6 84 -22z"/>
<path d="M2375 5104 c-188 -29 -358 -148 -433 -304 -34 -69 -37 -83 -40 -182
-3 -82 0 -119 13 -160 44 -136 125 -225 324 -356 229 -150 277 -206 269 -309
-4 -44 -11 -60 -37 -87 -45 -46 -92 -60 -193 -54 -97 5 -146 26 -201 87 -38
42 -57 92 -57 151 0 135 -99 202 -196 132 -179 -130 -186 -404 -15 -594 75
-83 205 -161 324 -195 29 -8 106 -16 172 -19 152 -7 234 9 363 72 217 105 339
305 318 524 -20 222 -145 379 -431 539 -181 102 -238 178 -204 276 12 33 23
45 68 68 131 66 267 9 317 -134 50 -141 177 -179 267 -80 46 52 61 99 55 183
-13 172 -180 353 -388 419 -64 20 -228 33 -295 23z"/>
<path d="M4277 3120 c-391 -104 -691 -510 -737 -997 -17 -187 10 -347 87 -503
64 -131 170 -239 293 -298 120 -57 217 -76 349 -69 130 7 199 25 316 82 142
69 265 170 351 290 63 89 87 156 82 234 -4 57 -8 67 -36 92 -67 60 -114 48
-267 -66 -173 -129 -306 -181 -440 -173 -120 8 -200 68 -230 173 -27 90 -22
99 60 107 504 52 845 277 897 592 39 237 -134 470 -402 541 -76 20 -238 18
-323 -5z m257 -411 c81 -22 116 -90 82 -158 -24 -46 -104 -111 -179 -145 -84
-38 -356 -130 -363 -123 -11 11 60 169 105 233 77 110 156 171 248 193 53 12
63 12 107 0z"/>
</g>
</svg>
