<?xml version="1.0" encoding="UTF-8"?>
<!DOCTYPE svg PUBLIC "-//W3C//DTD SVG 1.1//EN" "http://www.w3.org/Graphics/SVG/1.1/DTD/svg11.dtd">
<svg xmlns="http://www.w3.org/2000/svg" version="1.1" width="960px" height="960px" style="shape-rendering:geometricPrecision; text-rendering:geometricPrecision; image-rendering:optimizeQuality; fill-rule:evenodd; clip-rule:evenodd" xmlns:xlink="http://www.w3.org/1999/xlink">
<g><path style="opacity:1" fill="#080808" d="M 536.5,574.5 C 517.544,573.359 498.544,573.192 479.5,574C 497.338,574.168 515.005,574.668 532.5,575.5C 496.26,575.83 460.094,575.496 424,574.5C 423.333,449.833 423.333,325.167 424,200.5C 523.763,199.501 623.596,199.168 723.5,199.5C 723.5,237.5 723.5,275.5 723.5,313.5C 661.167,313.5 598.833,313.5 536.5,313.5C 536.5,400.5 536.5,487.5 536.5,574.5 Z"/></g>
<g><path style="opacity:1" fill="#1c1c1c" d="M 302.5,356.5 C 303.582,359.732 302.415,360.066 299,357.5C 296.733,357.859 294.233,358.526 291.5,359.5C 281.924,358.186 272.758,360.186 264,365.5C 263.667,365.167 263.333,364.833 263,364.5C 260.743,366.046 258.576,367.712 256.5,369.5C 251.777,370.018 247.443,372.018 243.5,375.5C 242.636,377.197 241.303,378.363 239.5,379C 239.833,379.333 240.167,379.667 240.5,380C 236.973,380.892 233.973,382.559 231.5,385C 231.833,385.333 232.167,385.667 232.5,386C 230.041,386.724 229.041,388.057 229.5,390C 226.623,392.387 223.956,395.054 221.5,398C 221.833,398.333 222.167,398.667 222.5,399C 220.981,400.351 219.648,401.851 218.5,403.5C 219.688,403.307 221.022,403.807 222.5,405C 220.35,406.411 218.016,407.245 215.5,407.5C 214.58,409.881 214.58,412.214 215.5,414.5C 214.624,415.251 213.624,415.751 212.5,416C 212.833,417 213.167,418 213.5,419C 212.572,419.388 211.905,420.055 211.5,421C 209.458,425.339 208.124,429.672 207.5,434C 209.045,442.934 208.711,451.767 206.5,460.5C 201.905,422.463 215.239,392.296 246.5,370C 263.617,359.221 282.283,354.721 302.5,356.5 Z"/></g>
<g><path style="opacity:1" fill="#060606" d="M 302.5,356.5 C 305.237,356.401 307.904,356.735 310.5,357.5C 309.909,358.151 309.243,358.818 308.5,359.5C 309.651,360.731 310.817,360.731 312,359.5C 312.915,360.328 313.581,361.328 314,362.5C 316.904,361.725 319.57,362.392 322,364.5C 323.667,364.5 325.333,364.5 327,364.5C 327.853,366.125 328.853,366.458 330,365.5C 331.353,366.685 332.52,368.019 333.5,369.5C 334.086,369.291 334.586,368.957 335,368.5C 339.134,371.09 343.3,373.59 347.5,376C 348.833,376.667 348.833,377.333 347.5,378C 354.479,382.31 360.479,388.31 365.5,396C 365.167,396.333 364.833,396.667 364.5,397C 368.5,397.667 368.5,398.333 364.5,399C 367.641,399.631 368.641,401.298 367.5,404C 368.5,404.5 369.5,405 370.5,405.5C 371.134,407.567 372.134,409.4 373.5,411C 373.043,411.414 372.709,411.914 372.5,412.5C 373.167,412.833 373.833,413.167 374.5,413.5C 371.869,415.005 372.203,415.671 375.5,415.5C 375.986,417.807 375.986,419.973 375.5,422C 376.77,422.9 377.77,424.066 378.5,425.5C 379.182,424.757 379.849,424.091 380.5,423.5C 386.848,450.088 382.181,474.421 366.5,496.5C 366.483,494.972 365.816,494.472 364.5,495C 363.167,495.667 363.167,496.333 364.5,497C 363.099,498.318 361.265,499.485 359,500.5C 357.799,503.71 355.799,506.377 353,508.5C 352.308,509.437 352.475,510.103 353.5,510.5C 345.809,518.866 336.476,525.033 325.5,529C 295.088,539.068 266.755,535.068 240.5,517C 235.084,512.813 230.417,507.979 226.5,502.5C 227.289,502.217 227.956,501.717 228.5,501C 221.02,493.327 216.02,484.66 213.5,475C 210.833,474 210.833,473 213.5,472C 213.217,470.076 211.884,468.409 209.5,467C 209.957,466.586 210.291,466.086 210.5,465.5C 209.234,464.638 207.901,463.971 206.5,463.5C 206.5,462.5 206.5,461.5 206.5,460.5C 208.711,451.767 209.045,442.934 207.5,434C 208.124,429.672 209.458,425.339 211.5,421C 211.905,420.055 212.572,419.388 213.5,419C 213.167,418 212.833,417 212.5,416C 213.624,415.751 214.624,415.251 215.5,414.5C 214.58,412.214 214.58,409.881 215.5,407.5C 218.016,407.245 220.35,406.411 222.5,405C 221.022,403.807 219.688,403.307 218.5,403.5C 219.648,401.851 220.981,400.351 222.5,399C 222.167,398.667 221.833,398.333 221.5,398C 223.956,395.054 226.623,392.387 229.5,390C 229.041,388.057 230.041,386.724 232.5,386C 232.167,385.667 231.833,385.333 231.5,385C 233.973,382.559 236.973,380.892 240.5,380C 240.167,379.667 239.833,379.333 239.5,379C 241.303,378.363 242.636,377.197 243.5,375.5C 247.443,372.018 251.777,370.018 256.5,369.5C 258.576,367.712 260.743,366.046 263,364.5C 263.333,364.833 263.667,365.167 264,365.5C 272.758,360.186 281.924,358.186 291.5,359.5C 294.233,358.526 296.733,357.859 299,357.5C 302.415,360.066 303.582,359.732 302.5,356.5 Z"/></g>
<g><path style="opacity:1" fill="#070707" d="M 612.5,366.5 C 611.972,367.721 611.305,368.887 610.5,370C 619.131,372.276 627.798,375.276 636.5,379C 636.93,379.92 637.264,380.753 637.5,381.5C 638.192,380.975 638.692,380.308 639,379.5C 647.422,384.6 655.589,389.433 663.5,394C 664.893,395.171 665.727,396.671 666,398.5C 666.333,397.833 666.667,397.167 667,396.5C 670.222,399.388 673.722,401.888 677.5,404C 676.833,404.333 676.167,404.667 675.5,405C 687.586,412.084 697.419,421.584 705,433.5C 707.088,435.588 709.588,438.088 712.5,441C 712.167,441.333 711.833,441.667 711.5,442C 713.386,444.763 715.719,447.097 718.5,449C 718.167,449.333 717.833,449.667 717.5,450C 718.833,451.333 720.167,452.667 721.5,454C 720.448,455.716 721.114,456.716 723.5,457C 722.167,458.84 722.334,459.34 724,458.5C 723.281,461.839 724.781,464.005 728.5,465C 728.167,466 727.833,467 727.5,468C 728.931,468.465 730.097,469.299 731,470.5C 731.483,469.552 731.649,468.552 731.5,467.5C 756.711,516.392 761.544,567.392 746,620.5C 736.572,650.057 721.072,675.723 699.5,697.5C 699.565,697.062 699.399,696.728 699,696.5C 695.123,699.521 692.289,703.188 690.5,707.5C 689.167,708.5 687.833,709.5 686.5,710.5C 685.883,710.389 685.383,710.056 685,709.5C 681.779,712.855 678.279,715.855 674.5,718.5C 673.614,719.325 673.281,720.325 673.5,721.5C 644.83,743.154 612.497,755.988 576.5,760C 452.834,760.5 329.167,760.667 205.5,760.5C 204.667,722.173 204.333,683.84 204.5,645.5C 325.167,645.667 445.834,645.5 566.5,645C 584.799,643.346 600.799,636.512 614.5,624.5C 617.232,622.965 619.898,621.131 622.5,619C 623.774,618.023 623.774,617.189 622.5,616.5C 649.473,580.115 650.306,543.115 625,505.5C 615.532,494.927 604.532,486.261 592,479.5C 591.333,440.833 591.333,402.167 592,363.5C 593.062,362.903 594.228,362.57 595.5,362.5C 601.22,363.68 606.887,365.014 612.5,366.5 Z"/></g>
<g><path style="opacity:1" fill="#191919" d="M 612.5,366.5 C 665.379,384.721 705.046,418.388 731.5,467.5C 731.649,468.552 731.483,469.552 731,470.5C 730.097,469.299 728.931,468.465 727.5,468C 727.833,467 728.167,466 728.5,465C 724.781,464.005 723.281,461.839 724,458.5C 722.334,459.34 722.167,458.84 723.5,457C 721.114,456.716 720.448,455.716 721.5,454C 720.167,452.667 718.833,451.333 717.5,450C 717.833,449.667 718.167,449.333 718.5,449C 715.719,447.097 713.386,444.763 711.5,442C 711.833,441.667 712.167,441.333 712.5,441C 709.588,438.088 707.088,435.588 705,433.5C 697.419,421.584 687.586,412.084 675.5,405C 676.167,404.667 676.833,404.333 677.5,404C 673.722,401.888 670.222,399.388 667,396.5C 666.667,397.167 666.333,397.833 666,398.5C 665.727,396.671 664.893,395.171 663.5,394C 655.589,389.433 647.422,384.6 639,379.5C 638.692,380.308 638.192,380.975 637.5,381.5C 637.264,380.753 636.93,379.92 636.5,379C 627.798,375.276 619.131,372.276 610.5,370C 611.305,368.887 611.972,367.721 612.5,366.5 Z"/></g>
<g><path style="opacity:1" fill="#1a1a1a" d="M 310.5,357.5 C 340.996,363.82 362.829,381.154 376,409.5C 378.007,414.019 379.507,418.686 380.5,423.5C 379.849,424.091 379.182,424.757 378.5,425.5C 377.77,424.066 376.77,422.9 375.5,422C 375.986,419.973 375.986,417.807 375.5,415.5C 372.203,415.671 371.869,415.005 374.5,413.5C 373.833,413.167 373.167,412.833 372.5,412.5C 372.709,411.914 373.043,411.414 373.5,411C 372.134,409.4 371.134,407.567 370.5,405.5C 369.5,405 368.5,404.5 367.5,404C 368.641,401.298 367.641,399.631 364.5,399C 368.5,398.333 368.5,397.667 364.5,397C 364.833,396.667 365.167,396.333 365.5,396C 360.479,388.31 354.479,382.31 347.5,378C 348.833,377.333 348.833,376.667 347.5,376C 343.3,373.59 339.134,371.09 335,368.5C 334.586,368.957 334.086,369.291 333.5,369.5C 332.52,368.019 331.353,366.685 330,365.5C 328.853,366.458 327.853,366.125 327,364.5C 325.333,364.5 323.667,364.5 322,364.5C 319.57,362.392 316.904,361.725 314,362.5C 313.581,361.328 312.915,360.328 312,359.5C 310.817,360.731 309.651,360.731 308.5,359.5C 309.243,358.818 309.909,358.151 310.5,357.5 Z"/></g>
<g><path style="opacity:1" fill="#222222" d="M 206.5,463.5 C 207.901,463.971 209.234,464.638 210.5,465.5C 210.291,466.086 209.957,466.586 209.5,467C 211.884,468.409 213.217,470.076 213.5,472C 210.833,473 210.833,474 213.5,475C 216.02,484.66 221.02,493.327 228.5,501C 227.956,501.717 227.289,502.217 226.5,502.5C 216.437,491.376 209.77,478.376 206.5,463.5 Z"/></g>
<g><path style="opacity:1" fill="#282828" d="M 366.5,496.5 C 364.552,499.621 362.385,502.621 360,505.5C 358.223,507.79 356.056,509.457 353.5,510.5C 352.475,510.103 352.308,509.437 353,508.5C 355.799,506.377 357.799,503.71 359,500.5C 361.265,499.485 363.099,498.318 364.5,497C 363.167,496.333 363.167,495.667 364.5,495C 365.816,494.472 366.483,494.972 366.5,496.5 Z"/></g>
<g><path style="opacity:1" fill="#303131" d="M 536.5,574.5 C 535.432,575.434 534.099,575.768 532.5,575.5C 515.005,574.668 497.338,574.168 479.5,574C 498.544,573.192 517.544,573.359 536.5,574.5 Z"/></g>
<g><path style="opacity:1" fill="#444444" d="M 622.5,616.5 C 623.774,617.189 623.774,618.023 622.5,619C 619.898,621.131 617.232,622.965 614.5,624.5C 616.833,621.5 619.5,618.833 622.5,616.5 Z"/></g>
<g><path style="opacity:1" fill="#474747" d="M 699.5,697.5 C 697.234,701.436 694.234,704.769 690.5,707.5C 692.289,703.188 695.123,699.521 699,696.5C 699.399,696.728 699.565,697.062 699.5,697.5 Z"/></g>
<g><path style="opacity:1" fill="#353535" d="M 686.5,710.5 C 682.763,714.869 678.43,718.535 673.5,721.5C 673.281,720.325 673.614,719.325 674.5,718.5C 678.279,715.855 681.779,712.855 685,709.5C 685.383,710.056 685.883,710.389 686.5,710.5 Z"/></g>
</svg>
