<?xml version="1.0" encoding="UTF-8"?>
<!DOCTYPE svg PUBLIC "-//W3C//DTD SVG 1.1//EN" "http://www.w3.org/Graphics/SVG/1.1/DTD/svg11.dtd">
<svg xmlns="http://www.w3.org/2000/svg" version="1.1" width="600px" height="600px" style="shape-rendering:geometricPrecision; text-rendering:geometricPrecision; image-rendering:optimizeQuality; fill-rule:evenodd; clip-rule:evenodd" xmlns:xlink="http://www.w3.org/1999/xlink">
<g><path style="opacity:1" fill="#040404" d="M 465.5,164.5 C 465.611,163.883 465.944,163.383 466.5,163C 463.667,160.167 460.833,157.333 458,154.5C 457.601,154.728 457.435,155.062 457.5,155.5C 388.455,93.3197 310.121,78.4864 222.5,111C 198.269,121.426 176.603,135.592 157.5,153.5C 156.448,153.351 155.448,153.517 154.5,154C 151.167,157.333 147.833,160.667 144.5,164C 145.056,164.383 145.389,164.883 145.5,165.5C 95.3428,225.096 80.1761,292.763 100,368.5C 101.94,374.987 104.273,381.321 107,387.5C 118.029,378.736 130.529,373.403 144.5,371.5C 151.33,371.632 157.664,373.466 163.5,377C 168.634,381.133 173.468,385.633 178,390.5C 189.134,380.016 202.301,374.016 217.5,372.5C 241.564,374.726 256.064,387.726 261,411.5C 261.5,453.499 261.667,495.499 261.5,537.5C 255.118,537.077 248.785,536.244 242.5,535C 237.638,534.369 233.138,532.869 229,530.5C 228.667,491.833 228.333,453.167 228,414.5C 224.454,405.615 217.954,401.781 208.5,403C 201.187,405.072 194.687,408.572 189,413.5C 188.805,447.476 188.639,481.476 188.5,515.5C 176.896,511.282 166.063,505.615 156,498.5C 155.667,470.833 155.333,443.167 155,415.5C 150.337,402.442 141.504,398.609 128.5,404C 125.006,405.579 121.673,407.413 118.5,409.5C 117.5,426.821 117.167,444.154 117.5,461.5C 116.325,461.719 115.325,461.386 114.5,460.5C 65.3125,398.767 49.1458,329.1 66,251.5C 88.4329,169.738 138.6,112.238 216.5,79C 298.349,49.5374 375.349,58.8707 447.5,107C 484.476,133.822 512.309,167.989 531,209.5C 537.064,222.726 535.397,234.726 526,245.5C 504.812,269.387 483.979,293.554 463.5,318C 488.543,318.824 513.543,318.657 538.5,317.5C 539.086,317.709 539.586,318.043 540,318.5C 540.667,326.833 540.667,335.167 540,343.5C 539.626,344.416 539.126,345.25 538.5,346C 536.5,346.333 534.5,346.667 532.5,347C 493.747,347.23 455.08,347.063 416.5,346.5C 416.059,337.724 416.559,329.058 418,320.5C 442.614,294.892 466.114,268.392 488.5,241C 465.836,240.5 443.169,240.333 420.5,240.5C 420.181,230.584 420.514,220.75 421.5,211C 446.5,210.667 471.5,210.333 496.5,210C 488.011,193.505 477.678,178.338 465.5,164.5 Z M 183.5,232.5 C 197.651,230.828 209.817,234.828 220,244.5C 232.71,265.8 233.377,287.467 222,309.5C 214.167,319.163 204,323.497 191.5,322.5C 172.605,322.632 160.438,313.632 155,295.5C 149.825,277.401 152.158,260.401 162,244.5C 168.012,238.248 175.179,234.248 183.5,232.5 Z"/></g>
<g><path style="opacity:1" fill="#444444" d="M 157.5,153.5 C 153.86,157.806 149.86,161.806 145.5,165.5C 145.389,164.883 145.056,164.383 144.5,164C 147.833,160.667 151.167,157.333 154.5,154C 155.448,153.517 156.448,153.351 157.5,153.5 Z"/></g>
<g><path style="opacity:1" fill="#070707" d="M 377.5,157.5 C 394.635,157.136 402.135,165.469 400,182.5C 394.256,195.281 384.756,199.114 371.5,194C 362.22,186.627 360.054,177.46 365,166.5C 368.299,162.118 372.466,159.118 377.5,157.5 Z"/></g>
<g><path style="opacity:1" fill="#3c3c3d" d="M 465.5,164.5 C 462.119,162.12 459.453,159.12 457.5,155.5C 457.435,155.062 457.601,154.728 458,154.5C 460.833,157.333 463.667,160.167 466.5,163C 465.944,163.383 465.611,163.883 465.5,164.5 Z"/></g>
<g><path style="opacity:1" fill="#050505" d="M 261.5,302.5 C 260.503,302.47 259.836,302.97 259.5,304C 258.281,308.238 256.614,312.238 254.5,316C 255.056,316.383 255.389,316.883 255.5,317.5C 246.473,335 232.139,345.5 212.5,349C 191.354,353.539 171.02,351.206 151.5,342C 128.754,326.344 117.754,304.51 118.5,276.5C 120.471,229.862 144.804,205.529 191.5,203.5C 238.851,206.521 263.185,231.854 264.5,279.5C 264.508,287.436 263.508,295.102 261.5,302.5 Z M 183.5,232.5 C 175.179,234.248 168.012,238.248 162,244.5C 152.158,260.401 149.825,277.401 155,295.5C 160.438,313.632 172.605,322.632 191.5,322.5C 204,323.497 214.167,319.163 222,309.5C 233.377,287.467 232.71,265.8 220,244.5C 209.817,234.828 197.651,230.828 183.5,232.5 Z"/></g>
<g><path style="opacity:1" fill="#030303" d="M 278.5,210.5 C 285.532,210.17 292.532,210.503 299.5,211.5C 301.473,216.779 303.973,221.779 307,226.5C 317.695,219.57 329.195,214.403 341.5,211C 345.091,210.211 348.591,210.378 352,211.5C 352.667,220.5 352.667,229.5 352,238.5C 338.101,241.022 324.767,245.355 312,251.5C 311.5,283.498 311.333,315.498 311.5,347.5C 300.252,347.821 289.085,347.487 278,346.5C 277.172,301.096 277.339,255.762 278.5,210.5 Z"/></g>
<g><path style="opacity:1" fill="#0b0b0b" d="M 364.5,211.5 C 375.748,211.179 386.915,211.513 398,212.5C 398.667,257.167 398.667,301.833 398,346.5C 386.915,347.487 375.748,347.821 364.5,347.5C 364.5,302.167 364.5,256.833 364.5,211.5 Z"/></g>
<g><path style="opacity:1" fill="#303030" d="M 261.5,302.5 C 260.657,308.043 258.657,313.043 255.5,317.5C 255.389,316.883 255.056,316.383 254.5,316C 256.614,312.238 258.281,308.238 259.5,304C 259.836,302.97 260.503,302.47 261.5,302.5 Z"/></g>
<g><path style="opacity:1" fill="#040404" d="M 448.5,365.5 C 464.904,364.154 480.904,365.988 496.5,371C 519.484,381.941 530.817,400.274 530.5,426C 528.325,476.094 502.325,498.094 452.5,492C 448.424,491.524 444.59,490.358 441,488.5C 440.5,504.163 440.333,519.83 440.5,535.5C 429.86,536.375 419.194,536.709 408.5,536.5C 408.5,482.167 408.5,427.833 408.5,373.5C 421.911,370.602 435.244,367.935 448.5,365.5 Z M 451.5,395.5 C 459.507,395.334 467.507,395.5 475.5,396C 485.313,396.808 492.147,401.641 496,410.5C 499.314,423.353 498.647,436.019 494,448.5C 489.68,456.154 483.18,460.654 474.5,462C 463.005,463.424 451.838,462.257 441,458.5C 440.5,438.169 440.333,417.836 440.5,397.5C 444.387,397.354 448.054,396.687 451.5,395.5 Z"/></g>
<g><path style="opacity:1" fill="#070707" d="M 312.5,376.5 C 324.838,376.333 337.171,376.5 349.5,377C 364.217,378.275 376.383,384.441 386,395.5C 389.409,401.393 391.409,407.726 392,414.5C 392.5,446.165 392.667,477.832 392.5,509.5C 388.062,510.123 383.729,510.456 379.5,510.5C 375.174,509.921 371.674,507.921 369,504.5C 367,501.833 365,499.167 363,496.5C 345.5,508.122 326.333,511.956 305.5,508C 278.538,500.6 268.038,483.1 274,455.5C 278.397,442.689 287.23,434.523 300.5,431C 310.204,428.577 320.038,427.077 330,426.5C 339.834,427.429 349.667,428.429 359.5,429.5C 362.369,416.252 357.369,408.085 344.5,405C 324.173,401.736 304.34,403.569 285,410.5C 284.228,410.355 283.561,410.022 283,409.5C 282.333,400.833 282.333,392.167 283,383.5C 284.648,382.283 286.481,381.45 288.5,381C 296.63,379.44 304.63,377.94 312.5,376.5 Z M 323.5,451.5 C 335.569,451.169 347.569,451.836 359.5,453.5C 359.691,460.511 359.191,467.178 358,473.5C 345.053,481.956 330.887,484.789 315.5,482C 312.336,481.008 309.836,479.175 308,476.5C 303.553,462.043 308.72,453.71 323.5,451.5 Z"/></g>
</svg>
